<svg width="20" height="20" viewBox="0 0 20 20" fill="none" xmlns="http://www.w3.org/2000/svg">
<foreignObject x="-6.81641" y="-6.74988" width="33.6328" height="33.4998"><div xmlns="http://www.w3.org/1999/xhtml" style="backdrop-filter:blur(4px);height:100%;width:100%"></div></foreignObject><path data-figma-bg-blur-radius="8" d="M7.18359 11.5831H9.35059C12.2499 11.5833 14.6006 13.9337 14.6006 16.8331V17.7501C14.6004 17.8879 14.4884 17.9999 14.3506 18.0001H2.18359C2.04563 18.0001 1.93377 17.888 1.93359 17.7501V16.8331C1.93359 13.9336 4.2841 11.5831 7.18359 11.5831ZM8.2666 2.00012C10.1534 2.0003 11.6826 3.53025 11.6826 5.41711C11.6824 7.30383 10.1533 8.83295 8.2666 8.83313C6.37974 8.83313 4.84979 7.30394 4.84961 5.41711C4.84961 3.53014 6.37963 2.00012 8.2666 2.00012Z" stroke="#1C66E5" stroke-width="1.5"/>
</svg>
