<svg width="24" height="24" viewBox="0 0 24 24" fill="none" xmlns="http://www.w3.org/2000/svg">
<mask id="path-1-inside-1_20474_6553" fill="white">
<path d="M16 4C16.5523 4 17 4.44772 17 5V7.7998L21.5771 5.66406C22.2401 5.35467 23 5.83869 23 6.57031V17.4297C23 18.1613 22.2401 18.6453 21.5771 18.3359L17 16.1992V19C17 19.5523 16.5523 20 16 20H1.99997C1.44768 20 0.999969 19.5523 0.999969 19V5C0.999969 4.44772 1.44768 4 1.99997 4H16Z"/>
</mask>
<path d="M17 7.7998H15.3V10.469L17.7188 9.34035L17 7.7998ZM21.5771 5.66406L22.296 7.20461L22.296 7.20457L21.5771 5.66406ZM23 6.57031H21.3V6.57031H23ZM23 17.4297H24.7V17.4297H23ZM21.5771 18.3359L20.858 19.8764L20.8582 19.8764L21.5771 18.3359ZM17 16.1992L17.7191 14.6588L15.3 13.5295V16.1992H17ZM1.99997 20V21.7V20ZM1.99997 4V2.3V4ZM16 4V5.7C15.6134 5.7 15.3 5.3866 15.3 5H17H18.7C18.7 3.50883 17.4911 2.3 16 2.3V4ZM17 5H15.3V7.7998H17H18.7V5H17ZM17 7.7998L17.7188 9.34035L22.296 7.20461L21.5771 5.66406L20.8583 4.12352L16.2811 6.25926L17 7.7998ZM21.5771 5.66406L22.296 7.20457C21.8317 7.42125 21.3 7.0822 21.3 6.57031H23H24.7C24.7 4.59518 22.6485 3.28809 20.8582 4.12355L21.5771 5.66406ZM23 6.57031H21.3V17.4297H23H24.7V6.57031H23ZM23 17.4297H21.3C21.3 16.9178 21.8317 16.5787 22.296 16.7954L21.5771 18.3359L20.8582 19.8764C22.6485 20.7119 24.7 19.4048 24.7 17.4297H23ZM21.5771 18.3359L22.2962 16.7955L17.7191 14.6588L17 16.1992L16.2809 17.7396L20.858 19.8764L21.5771 18.3359ZM17 16.1992H15.3V19H17H18.7V16.1992H17ZM17 19H15.3C15.3 18.6134 15.6134 18.3 16 18.3V20V21.7C17.4911 21.7 18.7 20.4912 18.7 19H17ZM16 20V18.3H1.99997V20V21.7H16V20ZM1.99997 20V18.3C2.38657 18.3 2.69997 18.6134 2.69997 19H0.999969H-0.700031C-0.700031 20.4912 0.508801 21.7 1.99997 21.7V20ZM0.999969 19H2.69997V5H0.999969H-0.700031V19H0.999969ZM0.999969 5H2.69997C2.69997 5.3866 2.38657 5.7 1.99997 5.7V4V2.3C0.508801 2.3 -0.700031 3.50883 -0.700031 5H0.999969ZM1.99997 4V5.7H16V4V2.3H1.99997V4Z" fill="#4F586B" mask="url(#path-1-inside-1_20474_6553)"/>
<path d="M2 4.84961H16C16.0828 4.84961 16.1504 4.91716 16.1504 5V19C16.1504 19.0828 16.0828 19.1504 16 19.1504H2C1.91716 19.1504 1.84961 19.0828 1.84961 19V5C1.84961 4.91716 1.91716 4.84961 2 4.84961Z" stroke="#4F586B" stroke-width="1.7" stroke-linecap="round"/>
<path d="M5 9H8.5" stroke="#1C66E5" stroke-width="1.7"/>
</svg>
