<svg width="20" height="20" viewBox="0 0 20 20" fill="none" xmlns="http://www.w3.org/2000/svg">
<path fill-rule="evenodd" clip-rule="evenodd" d="M3.16543 3.76702C2.80644 3.76702 2.51543 4.05803 2.51543 4.41701V12.6674C2.51543 13.0264 2.80644 13.3174 3.16543 13.3174H5.84876V15.0174H3.16543C1.86756 15.0174 0.81543 13.9653 0.81543 12.6674V4.41701C0.81543 3.11915 1.86756 2.06702 3.16543 2.06702H16.8321C18.13 2.06702 19.1821 3.11915 19.1821 4.41701V12.6674C19.1821 13.9653 18.13 15.0174 16.8321 15.0174H14.1488V13.3174H16.8321C17.1911 13.3174 17.4821 13.0264 17.4821 12.6674V4.41701C17.4821 4.05803 17.1911 3.76702 16.8321 3.76702H3.16543Z" fill="#B2BBD1"/>
<path fill-rule="evenodd" clip-rule="evenodd" d="M9.39707 12.399C9.72902 12.067 10.2672 12.067 10.5992 12.399L14.7658 16.5656C15.0089 16.8087 15.0816 17.1743 14.9501 17.492C14.8185 17.8096 14.5086 18.0167 14.1648 18.0167H5.83145C5.48765 18.0167 5.17771 17.8096 5.04615 17.492C4.91458 17.1743 4.98731 16.8087 5.2304 16.5656L9.39707 12.399ZM7.88353 16.3167H12.1127L9.99811 14.2021L7.88353 16.3167Z" fill="#B2BBD1"/>
</svg>
