<svg width="20" height="20" viewBox="0 0 20 20" fill="none" xmlns="http://www.w3.org/2000/svg">
<path fill-rule="evenodd" clip-rule="evenodd" d="M2.14917 3.00039C2.14917 1.97866 2.97744 1.15039 3.99917 1.15039H14.9992C16.0209 1.15039 16.8492 1.97866 16.8492 3.00039V7.35039H15.1492V3.00039C15.1492 2.91755 15.082 2.85039 14.9992 2.85039H3.99917C3.91633 2.85039 3.84917 2.91755 3.84917 3.00039V17.0004C3.84917 17.0832 3.91633 17.1504 3.99917 17.1504H8.53667V18.8504H3.99917C2.97744 18.8504 2.14917 18.0221 2.14917 17.0004V3.00039Z" fill="#6B758A"/>
<path fill-rule="evenodd" clip-rule="evenodd" d="M6.14917 6.00039C6.14917 5.53095 6.52973 5.15039 6.99917 5.15039L11.9992 5.15039C12.4686 5.15039 12.8492 5.53095 12.8492 6.00039C12.8492 6.46983 12.4686 6.85039 11.9992 6.85039L6.99917 6.85039C6.52973 6.85039 6.14917 6.46983 6.14917 6.00039Z" fill="#6B758A"/>
<path fill-rule="evenodd" clip-rule="evenodd" d="M6.14917 9.00039C6.14917 8.53095 6.52973 8.15039 6.99917 8.15039H8.99917C9.46861 8.15039 9.84917 8.53095 9.84917 9.00039C9.84917 9.46983 9.46861 9.85039 8.99917 9.85039H6.99917C6.52973 9.85039 6.14917 9.46983 6.14917 9.00039Z" fill="#6B758A"/>
<path fill-rule="evenodd" clip-rule="evenodd" d="M15.499 11.1721C14.7842 10.7594 13.8701 11.0043 13.4573 11.7192C13.0446 12.4341 13.2895 13.3482 14.0044 13.7609C14.7193 14.1737 15.6334 13.9287 16.0461 13.2139C16.4589 12.499 16.2139 11.5849 15.499 11.1721ZM16.349 9.6999C14.8211 8.81772 12.8673 9.34124 11.9851 10.8692C11.1029 12.3972 11.6264 14.351 13.1544 15.2332C14.6824 16.1154 16.6362 15.5918 17.5184 14.0639C18.4005 12.5359 17.877 10.5821 16.349 9.6999Z" fill="#6B758A"/>
<path fill-rule="evenodd" clip-rule="evenodd" d="M11.1289 18.7365C10.7223 18.5018 10.583 17.982 10.8177 17.5754L12.4151 14.8088C12.6498 14.4022 13.1696 14.2629 13.5762 14.4977C13.9827 14.7324 14.122 15.2522 13.8873 15.6588L12.29 18.4254C12.0553 18.832 11.5354 18.9713 11.1289 18.7365Z" fill="#6B758A"/>
<path fill-rule="evenodd" clip-rule="evenodd" d="M14.9345 18.1071C14.6998 18.5136 14.1799 18.6529 13.7734 18.4182L11.929 17.3533C11.5224 17.1186 11.3831 16.5987 11.6178 16.1922C11.8526 15.7856 12.3724 15.6463 12.779 15.8811L14.6234 16.9459C15.0299 17.1807 15.1692 17.7005 14.9345 18.1071Z" fill="#6B758A"/>
</svg>
