<svg width="20" height="20" viewBox="0 0 20 20" fill="none" xmlns="http://www.w3.org/2000/svg">
<path fill-rule="evenodd" clip-rule="evenodd" d="M2.14941 3.00039C2.14941 1.97866 2.97769 1.15039 3.99941 1.15039H14.9994C16.0211 1.15039 16.8494 1.97866 16.8494 3.00039V7.35039H15.1494V3.00039C15.1494 2.91755 15.0823 2.85039 14.9994 2.85039H3.99941C3.91657 2.85039 3.84941 2.91755 3.84941 3.00039V17.0004C3.84941 17.0832 3.91657 17.1504 3.99941 17.1504H8.53691V18.8504H3.99941C2.97769 18.8504 2.14941 18.0221 2.14941 17.0004V3.00039Z" fill="#6B758A"/>
<path fill-rule="evenodd" clip-rule="evenodd" d="M6.14941 6.00039C6.14941 5.53095 6.52997 5.15039 6.99941 5.15039L11.9994 5.15039C12.4689 5.15039 12.8494 5.53095 12.8494 6.00039C12.8494 6.46983 12.4689 6.85039 11.9994 6.85039L6.99941 6.85039C6.52997 6.85039 6.14941 6.46983 6.14941 6.00039Z" fill="#6B758A"/>
<path fill-rule="evenodd" clip-rule="evenodd" d="M6.14941 9.00039C6.14941 8.53095 6.52997 8.15039 6.99941 8.15039H8.99941C9.46886 8.15039 9.84941 8.53095 9.84941 9.00039C9.84941 9.46983 9.46886 9.85039 8.99941 9.85039H6.99941C6.52997 9.85039 6.14941 9.46983 6.14941 9.00039Z" fill="#6B758A"/>
<path fill-rule="evenodd" clip-rule="evenodd" d="M13.9994 17.3004C15.822 17.3004 17.2994 15.8229 17.2994 14.0004C17.2994 12.1779 15.822 10.7004 13.9994 10.7004C12.1769 10.7004 10.6994 12.1779 10.6994 14.0004C10.6994 15.8229 12.1769 17.3004 13.9994 17.3004ZM13.9994 19.0004C16.7608 19.0004 18.9994 16.7618 18.9994 14.0004C18.9994 11.239 16.7608 9.00041 13.9994 9.00041C11.238 9.00041 8.99941 11.239 8.99941 14.0004C8.99941 16.7618 11.238 19.0004 13.9994 19.0004Z" fill="#6B758A"/>
<path fill-rule="evenodd" clip-rule="evenodd" d="M13.726 11.8965C14.1954 11.8965 14.576 12.2771 14.576 12.7465V13.3965H15.226C15.6954 13.3965 16.076 13.7771 16.076 14.2465C16.076 14.7159 15.6954 15.0965 15.226 15.0965H13.726C13.2565 15.0965 12.876 14.7159 12.876 14.2465V12.7465C12.876 12.2771 13.2565 11.8965 13.726 11.8965Z" fill="#6B758A"/>
</svg>
